<svg width="20" height="20" viewBox="0 0 20 20" fill="none" xmlns="http://www.w3.org/2000/svg">
<path d="M15.398 7.18076L16.87 5.62982C18.749 6.77195 20 8.35029 20 10.0993C20 13.591 15.042 16.4137 10 16.4211C8.97397 16.421 7.95075 16.308 6.947 16.0839L8.694 14.2443C9.12 14.2906 9.556 14.3149 9.997 14.3138H9.999C9.584 14.3138 9.184 14.2474 8.808 14.1242L10.789 12.0359C11.259 11.823 11.636 11.4258 11.839 10.9306L13.819 8.84338C14.0054 9.47252 14.0492 10.139 13.9468 10.7892C13.8444 11.4394 13.5987 12.0552 13.2295 12.5872C12.8602 13.1192 12.3777 13.5525 11.8206 13.8524C11.2636 14.1523 10.6475 14.3103 10.022 14.3138C14.267 14.298 18 12.0127 18 10.0993C18 9.10574 16.978 8.0068 15.398 7.18076ZM6.096 11.0212C5.96495 10.4053 5.96688 9.7662 6.10166 9.15115C6.23644 8.5361 6.50063 7.96081 6.87471 7.46776C7.24879 6.9747 7.72321 6.57648 8.26293 6.3025C8.80266 6.02851 9.3939 5.88577 9.993 5.8848C5.775 5.869 2 8.1796 2 10.0993C2 11.0434 2.904 12.077 4.327 12.8851L2.869 14.4192C1.134 13.2897 0 11.7693 0 10.0993C0 6.60759 4.984 3.75964 10 3.77755C10.914 3.78071 11.827 3.87659 12.709 4.0536L10.932 5.92484C10.642 5.90166 10.348 5.88796 10.052 5.8848C10.334 5.88902 10.609 5.92379 10.875 5.98595L6.096 11.0212ZM19.092 0.307961C19.2795 0.505545 19.3848 0.77349 19.3848 1.05287C19.3848 1.33226 19.2795 1.6002 19.092 1.79779L2.122 19.6778C2.02982 19.7785 1.91953 19.8589 1.79756 19.9142C1.6756 19.9695 1.5444 19.9986 1.41162 20C1.27884 20.0013 1.14715 19.9747 1.02422 19.9218C0.901286 19.8689 0.789582 19.7908 0.695624 19.6919C0.601666 19.5931 0.527334 19.4755 0.476967 19.346C0.426599 19.2166 0.401204 19.0779 0.402262 18.938C0.403321 18.7981 0.430813 18.6598 0.483134 18.5312C0.535455 18.4026 0.611557 18.2863 0.707 18.189L17.677 0.309014C17.7699 0.211052 17.8802 0.133338 18.0016 0.0803146C18.123 0.0272917 18.2531 0 18.3845 0C18.5159 0 18.646 0.0272917 18.7674 0.0803146C18.8888 0.133338 18.9991 0.209998 19.092 0.307961Z" fill="#999999"/>
</svg>
