<svg width="40" height="40" viewBox="0 0 40 40" fill="none" xmlns="http://www.w3.org/2000/svg">
<circle cx="20" cy="20" r="19.5" fill="#EFC352" stroke="#C5820D"/>
<path d="M14.6385 15.9572C12.3678 16.4713 11.2325 16.7279 10.962 17.5966C10.6925 18.4643 11.466 19.3698 13.014 21.18L13.4146 21.648C13.8539 22.1621 14.0746 22.4196 14.1733 22.7372C14.2721 23.0556 14.2389 23.399 14.1724 24.0849L14.1115 24.7098C13.8779 27.1255 13.7607 28.3329 14.4678 28.8692C15.1748 29.4064 16.2382 28.9163 18.3631 27.9378L18.9141 27.6849C19.5178 27.4061 19.8196 27.2677 20.1399 27.2677C20.4602 27.2677 20.7621 27.4061 21.3667 27.6849L21.9159 27.9378C24.0417 28.9163 25.1051 29.4055 25.8112 28.8701C26.5192 28.3329 26.402 27.1255 26.1684 24.7098M27.2659 21.18C28.8139 19.3707 29.5874 18.4652 29.3179 17.5966C29.0474 16.7279 27.9121 16.4704 25.6414 15.9572L25.0543 15.8242C24.4091 15.6784 24.0869 15.6055 23.8276 15.4089C23.5691 15.2122 23.4029 14.9141 23.0706 14.3178L22.7679 13.775C21.5984 11.6778 21.0141 10.6292 20.1399 10.6292C19.2658 10.6292 18.6815 11.6778 17.512 13.775" stroke="#C5820D" stroke-linecap="round"/>
</svg>
