<svg width="222" height="254" viewBox="0 0 222 254" fill="none" xmlns="http://www.w3.org/2000/svg">
<circle cx="109.058" cy="181.616" r="71.4186" fill="#EFC352" stroke="#C5820D" stroke-width="1.93023"/>
<path d="M89.6538 166.985C81.4357 168.846 77.3266 169.775 76.3478 172.919C75.3723 176.059 78.1718 179.336 83.7742 185.888L85.224 187.581C86.8142 189.442 87.6126 190.374 87.9701 191.523C88.3275 192.676 88.2073 193.919 87.9667 196.401L87.7463 198.663C86.9011 207.406 86.4768 211.775 89.0358 213.716C91.5948 215.661 95.4432 213.887 103.134 210.345L105.128 209.43C107.313 208.421 108.405 207.92 109.564 207.92C110.724 207.92 111.816 208.421 114.004 209.43L115.992 210.345C123.686 213.887 127.534 215.657 130.09 213.72C132.652 211.775 132.228 207.406 131.383 198.663M135.355 185.888C140.957 179.34 143.757 176.062 142.781 172.919C141.802 169.775 137.693 168.843 129.475 166.985L127.35 166.504C125.015 165.976 123.849 165.712 122.911 165.001C121.975 164.289 121.374 163.21 120.171 161.052L119.075 159.088C114.843 151.497 112.728 147.702 109.564 147.702C106.401 147.702 104.286 151.497 100.053 159.088" stroke="#C5820D" stroke-width="1.93023" stroke-linecap="round"/>
<mask id="path-3-outside-1_37_497" maskUnits="userSpaceOnUse" x="2" y="25.9535" width="73" height="72" fill="black">
<rect fill="white" x="2" y="25.9535" width="73" height="72"/>
<path d="M68.7723 49.9953H60.2252V59.6503C60.2252 61.7871 58.4841 63.8447 55.8725 63.8447C53.34 63.8447 51.5198 61.7871 51.5198 59.6503V33.0595C51.5198 30.9227 53.34 28.8651 55.8725 28.8651C58.4841 28.8651 60.2252 30.9227 60.2252 33.0595V42.7145H68.7723C70.9882 42.7145 72.4918 44.5347 72.4918 46.3549C72.4918 48.1751 70.9882 49.9953 68.7723 49.9953ZM13.2163 37.0956V54.1106H35.5337C37.7496 54.1106 39.2532 55.9308 39.2532 57.8301C39.2532 59.6503 37.7496 61.4706 35.5337 61.4706H8.86363C6.25202 61.4706 4.51095 59.3338 4.51095 57.197V34.0091C4.51095 31.8724 6.25202 29.8147 8.86363 29.8147H35.5337C37.7496 29.8147 39.2532 31.635 39.2532 33.4552C39.2532 35.2754 37.7496 37.0956 35.5337 37.0956H13.2163ZM13.9286 84.1836V87.9823H58.959C61.1749 87.9823 62.6785 89.8025 62.6785 91.6227C62.6785 93.5221 61.1749 95.2631 58.959 95.2631H9.57588C7.04342 95.2631 5.22321 93.2055 5.22321 91.0687V81.0972C5.22321 78.9604 7.04342 76.9028 9.57588 76.9028H51.5198V73.0249H9.02191C6.806 73.0249 5.22321 71.2047 5.22321 69.3845C5.22321 67.5643 6.806 65.7441 9.02191 65.7441H55.8725C58.4841 65.7441 60.2252 67.8017 60.2252 69.9385V79.9101C60.2252 82.0468 58.4841 84.1836 55.8725 84.1836H13.9286Z"/>
</mask>
<path d="M68.7723 49.9953H60.2252V59.6503C60.2252 61.7871 58.4841 63.8447 55.8725 63.8447C53.34 63.8447 51.5198 61.7871 51.5198 59.6503V33.0595C51.5198 30.9227 53.34 28.8651 55.8725 28.8651C58.4841 28.8651 60.2252 30.9227 60.2252 33.0595V42.7145H68.7723C70.9882 42.7145 72.4918 44.5347 72.4918 46.3549C72.4918 48.1751 70.9882 49.9953 68.7723 49.9953ZM13.2163 37.0956V54.1106H35.5337C37.7496 54.1106 39.2532 55.9308 39.2532 57.8301C39.2532 59.6503 37.7496 61.4706 35.5337 61.4706H8.86363C6.25202 61.4706 4.51095 59.3338 4.51095 57.197V34.0091C4.51095 31.8724 6.25202 29.8147 8.86363 29.8147H35.5337C37.7496 29.8147 39.2532 31.635 39.2532 33.4552C39.2532 35.2754 37.7496 37.0956 35.5337 37.0956H13.2163ZM13.9286 84.1836V87.9823H58.959C61.1749 87.9823 62.6785 89.8025 62.6785 91.6227C62.6785 93.5221 61.1749 95.2631 58.959 95.2631H9.57588C7.04342 95.2631 5.22321 93.2055 5.22321 91.0687V81.0972C5.22321 78.9604 7.04342 76.9028 9.57588 76.9028H51.5198V73.0249H9.02191C6.806 73.0249 5.22321 71.2047 5.22321 69.3845C5.22321 67.5643 6.806 65.7441 9.02191 65.7441H55.8725C58.4841 65.7441 60.2252 67.8017 60.2252 69.9385V79.9101C60.2252 82.0468 58.4841 84.1836 55.8725 84.1836H13.9286Z" fill="#EFC352"/>
<path d="M60.2252 49.9953V48.0651H58.295V49.9953H60.2252ZM60.2252 42.7145H58.295V44.6447H60.2252V42.7145ZM13.2163 37.0956V35.1653H11.2861V37.0956H13.2163ZM13.2163 54.1106H11.2861V56.0408H13.2163V54.1106ZM13.9286 84.1836V82.2534H11.9983V84.1836H13.9286ZM13.9286 87.9823H11.9983V89.9125H13.9286V87.9823ZM51.5198 76.9028V78.833H53.4501V76.9028H51.5198ZM51.5198 73.0249H53.4501V71.0947H51.5198V73.0249ZM68.7723 48.0651H60.2252V51.9256H68.7723V48.0651ZM58.295 49.9953V59.6503H62.1554V49.9953H58.295ZM58.295 59.6503C58.295 60.768 57.3717 61.9145 55.8725 61.9145V65.775C59.5965 65.775 62.1554 62.8062 62.1554 59.6503H58.295ZM55.8725 61.9145C54.4292 61.9145 53.4501 60.7443 53.4501 59.6503H49.5896C49.5896 62.8299 52.2509 65.775 55.8725 65.775V61.9145ZM53.4501 59.6503V33.0595H49.5896V59.6503H53.4501ZM53.4501 33.0595C53.4501 31.9655 54.4292 30.7953 55.8725 30.7953V26.9348C52.2509 26.9348 49.5896 29.8799 49.5896 33.0595H53.4501ZM55.8725 30.7953C57.3717 30.7953 58.295 31.9418 58.295 33.0595H62.1554C62.1554 29.9036 59.5965 26.9348 55.8725 26.9348V30.7953ZM58.295 33.0595V42.7145H62.1554V33.0595H58.295ZM60.2252 44.6447H68.7723V40.7843H60.2252V44.6447ZM68.7723 44.6447C69.8422 44.6447 70.5616 45.519 70.5616 46.3549H74.4221C74.4221 43.5504 72.1342 40.7843 68.7723 40.7843V44.6447ZM70.5616 46.3549C70.5616 47.1908 69.8422 48.0651 68.7723 48.0651V51.9256C72.1342 51.9256 74.4221 49.1594 74.4221 46.3549H70.5616ZM11.2861 37.0956V54.1106H15.1465V37.0956H11.2861ZM13.2163 56.0408H35.5337V52.1804H13.2163V56.0408ZM35.5337 56.0408C36.5781 56.0408 37.323 56.8883 37.323 57.8301H41.1834C41.1834 54.9733 38.921 52.1804 35.5337 52.1804V56.0408ZM37.323 57.8301C37.323 58.6661 36.6036 59.5403 35.5337 59.5403V63.4008C38.8956 63.4008 41.1834 60.6346 41.1834 57.8301H37.323ZM35.5337 59.5403H8.86363V63.4008H35.5337V59.5403ZM8.86363 59.5403C7.40901 59.5403 6.44119 58.361 6.44119 57.197H2.58072C2.58072 60.3066 5.09504 63.4008 8.86363 63.4008V59.5403ZM6.44119 57.197V34.0091H2.58072V57.197H6.44119ZM6.44119 34.0091C6.44119 32.8915 7.36442 31.745 8.86363 31.745V27.8845C5.13962 27.8845 2.58072 30.8533 2.58072 34.0091H6.44119ZM8.86363 31.745H35.5337V27.8845H8.86363V31.745ZM35.5337 31.745C36.6036 31.745 37.323 32.6192 37.323 33.4552H41.1834C41.1834 30.6507 38.8956 27.8845 35.5337 27.8845V31.745ZM37.323 33.4552C37.323 34.2911 36.6036 35.1653 35.5337 35.1653V39.0258C38.8956 39.0258 41.1834 36.2596 41.1834 33.4552H37.323ZM35.5337 35.1653H13.2163V39.0258H35.5337V35.1653ZM11.9983 84.1836V87.9823H15.8588V84.1836H11.9983ZM13.9286 89.9125H58.959V86.0521H13.9286V89.9125ZM58.959 89.9125C60.0289 89.9125 60.7483 90.7868 60.7483 91.6227H64.6087C64.6087 88.8182 62.3209 86.0521 58.959 86.0521V89.9125ZM60.7483 91.6227C60.7483 92.5108 60.0549 93.3329 58.959 93.3329V97.1934C62.2948 97.1934 64.6087 94.5334 64.6087 91.6227H60.7483ZM58.959 93.3329H9.57588V97.1934H58.959V93.3329ZM9.57588 93.3329C8.13256 93.3329 7.15344 92.1627 7.15344 91.0687H3.29298C3.29298 94.2483 5.95427 97.1934 9.57588 97.1934V93.3329ZM7.15344 91.0687V81.0972H3.29298V91.0687H7.15344ZM7.15344 81.0972C7.15344 80.0032 8.13256 78.833 9.57588 78.833V74.9725C5.95427 74.9725 3.29298 77.9176 3.29298 81.0972H7.15344ZM9.57588 78.833H51.5198V74.9725H9.57588V78.833ZM53.4501 76.9028V73.0249H49.5896V76.9028H53.4501ZM51.5198 71.0947H9.02191V74.9552H51.5198V71.0947ZM9.02191 71.0947C7.89851 71.0947 7.15344 70.1653 7.15344 69.3845H3.29298C3.29298 72.2441 5.71349 74.9552 9.02191 74.9552V71.0947ZM7.15344 69.3845C7.15344 68.6037 7.89851 67.6743 9.02191 67.6743V63.8139C5.71349 63.8139 3.29298 66.5249 3.29298 69.3845H7.15344ZM9.02191 67.6743H55.8725V63.8139H9.02191V67.6743ZM55.8725 67.6743C57.3717 67.6743 58.295 68.8208 58.295 69.9385H62.1554C62.1554 66.7826 59.5965 63.8139 55.8725 63.8139V67.6743ZM58.295 69.9385V79.9101H62.1554V69.9385H58.295ZM58.295 79.9101C58.295 81.0741 57.3271 82.2534 55.8725 82.2534V86.1138C59.6411 86.1138 62.1554 83.0196 62.1554 79.9101H58.295ZM55.8725 82.2534H13.9286V86.1138H55.8725V82.2534Z" fill="#C5820D" mask="url(#path-3-outside-1_37_497)"/>
<mask id="path-5-outside-2_37_497" maskUnits="userSpaceOnUse" x="67.3733" y="-3.28523" width="81.4554" height="81.3395" fill="black">
<rect fill="white" x="67.3733" y="-3.28523" width="81.4554" height="81.3395"/>
<path d="M82.407 66.9642L104.906 62.4333L102.527 47.7465C102.185 45.6372 103.628 43.1686 106.111 42.6686C108.671 42.153 110.719 43.9186 111.061 46.0278L113.44 60.7147L140.904 55.1838C143.076 54.7464 144.841 56.2463 145.132 58.0431C145.436 59.918 144.24 61.9335 142.068 62.371L83.5711 74.1514C81.3988 74.5889 79.6464 73.167 79.3427 71.2921C79.0517 69.4953 80.2347 67.4017 82.407 66.9642ZM80.1174 18.7008C77.7899 19.1696 76.18 17.6384 75.8763 15.7635C75.5853 13.9667 76.6258 11.9824 78.8757 11.5293L115.572 4.13921C124.261 2.38934 131.607 8.17036 132.859 15.9044L136.364 37.544C136.719 39.7314 135.251 42.0438 132.69 42.5594C130.208 43.0593 128.159 41.2938 127.818 39.1845L124.262 17.2324C123.642 13.4044 119.995 10.6702 115.883 11.4982L80.1174 18.7008Z"/>
</mask>
<path d="M82.407 66.9642L104.906 62.4333L102.527 47.7465C102.185 45.6372 103.628 43.1686 106.111 42.6686C108.671 42.153 110.719 43.9186 111.061 46.0278L113.44 60.7147L140.904 55.1838C143.076 54.7464 144.841 56.2463 145.132 58.0431C145.436 59.918 144.24 61.9335 142.068 62.371L83.5711 74.1514C81.3988 74.5889 79.6464 73.167 79.3427 71.2921C79.0517 69.4953 80.2347 67.4017 82.407 66.9642ZM80.1174 18.7008C77.7899 19.1696 76.18 17.6384 75.8763 15.7635C75.5853 13.9667 76.6258 11.9824 78.8757 11.5293L115.572 4.13921C124.261 2.38934 131.607 8.17036 132.859 15.9044L136.364 37.544C136.719 39.7314 135.251 42.0438 132.69 42.5594C130.208 43.0593 128.159 41.2938 127.818 39.1845L124.262 17.2324C123.642 13.4044 119.995 10.6702 115.883 11.4982L80.1174 18.7008Z" fill="#EFC352"/>
<path d="M104.906 62.4333L105.214 64.3387L107.107 63.9576L106.798 62.0522L104.906 62.4333ZM113.44 60.7147L111.548 61.0957L111.856 63.0011L113.748 62.6201L113.44 60.7147ZM82.7156 68.8696L105.214 64.3387L104.597 60.5279L82.0984 65.0588L82.7156 68.8696ZM106.798 62.0522L104.419 47.3654L100.635 48.1275L103.014 62.8144L106.798 62.0522ZM104.419 47.3654C104.237 46.24 105.048 44.8501 106.419 44.574L105.802 40.7632C102.208 41.4871 100.134 45.0344 100.635 48.1275L104.419 47.3654ZM106.419 44.574C107.845 44.2868 108.983 45.2599 109.169 46.4089L112.953 45.6468C112.456 42.5773 109.496 40.0192 105.802 40.7632L106.419 44.574ZM109.169 46.4089L111.548 61.0957L115.332 60.3336L112.953 45.6468L109.169 46.4089ZM113.748 62.6201L141.212 57.0892L140.595 53.2784L113.131 58.8093L113.748 62.6201ZM141.212 57.0892C142.261 56.878 143.106 57.599 143.24 58.4242L147.024 57.662C146.576 54.8936 143.891 52.6147 140.595 53.2784L141.212 57.0892ZM143.24 58.4242C143.382 59.3008 142.834 60.2492 141.759 60.4656L142.377 64.2764C145.647 63.6178 147.49 60.5352 147.024 57.662L143.24 58.4242ZM141.759 60.4656L83.2625 72.246L83.8797 76.0568L142.377 64.2764L141.759 60.4656ZM83.2625 72.246C82.1881 72.4624 81.3769 71.7877 81.2349 70.9111L77.4505 71.6732C77.9158 74.5464 80.6095 76.7154 83.8797 76.0568L83.2625 72.246ZM81.2349 70.9111C81.1013 70.0859 81.6668 69.0808 82.7156 68.8696L82.0984 65.0588C78.8026 65.7225 77.0021 68.9048 77.4505 71.6732L81.2349 70.9111ZM79.8088 16.7954C78.6824 17.0223 77.9284 16.3693 77.7686 15.3824L73.9841 16.1445C74.4316 18.9075 76.8975 21.3168 80.426 20.6062L79.8088 16.7954ZM77.7686 15.3824C77.6298 14.5257 78.0875 13.6556 79.1843 13.4347L78.567 9.6239C75.1641 10.3092 73.5408 13.4076 73.9841 16.1445L77.7686 15.3824ZM79.1843 13.4347L115.881 6.04461L115.263 2.23381L78.567 9.6239L79.1843 13.4347ZM115.881 6.04461C123.48 4.51427 129.877 9.55782 130.967 16.2854L134.751 15.5233C133.336 6.78289 125.043 0.264408 115.263 2.23381L115.881 6.04461ZM130.967 16.2854L134.472 37.9251L138.256 37.1629L134.751 15.5233L130.967 16.2854ZM134.472 37.9251C134.652 39.0373 133.92 40.3443 132.382 40.654L132.999 44.4648C136.581 43.7433 138.785 40.4255 138.256 37.1629L134.472 37.9251ZM132.382 40.654C131.056 40.921 129.9 39.9766 129.71 38.8034L125.925 39.5656C126.419 42.611 129.359 45.1977 132.999 44.4648L132.382 40.654ZM129.71 38.8034L126.154 16.8513L122.37 17.6135L125.925 39.5656L129.71 38.8034ZM126.154 16.8513C125.368 11.998 120.757 8.54897 115.574 9.59284L116.191 13.4036C119.232 12.7914 121.916 14.8109 122.37 17.6135L126.154 16.8513ZM115.574 9.59284L79.8088 16.7954L80.426 20.6062L116.191 13.4036L115.574 9.59284Z" fill="#C5820D" mask="url(#path-5-outside-2_37_497)"/>
<mask id="path-7-outside-3_37_497" maskUnits="userSpaceOnUse" x="150.873" y="25.9535" width="73" height="72" fill="black">
<rect fill="white" x="150.873" y="25.9535" width="73" height="72"/>
<path d="M217.883 64.1613H209.415V91.0687C209.415 93.2055 207.594 95.2631 205.062 95.2631C202.45 95.2631 200.709 93.2055 200.709 91.0687V33.0595C200.709 30.9227 202.45 28.8651 205.062 28.8651C207.594 28.8651 209.415 30.9227 209.415 33.0595V56.8805H217.883C220.178 56.8805 221.681 58.7007 221.681 60.5209C221.681 62.3411 220.178 64.1613 217.883 64.1613ZM162.327 84.8959H184.644C186.86 84.8959 188.443 86.7161 188.443 88.5363C188.443 90.4356 186.86 92.1767 184.644 92.1767H157.974C155.442 92.1767 153.621 90.1191 153.621 87.9823C153.621 70.0176 153.7 52.053 153.7 34.0091C153.7 31.8724 155.442 29.8147 158.053 29.8147C160.586 29.8147 162.406 31.8724 162.406 34.0091C162.406 51.0241 162.327 67.96 162.327 84.8959Z"/>
</mask>
<path d="M217.883 64.1613H209.415V91.0687C209.415 93.2055 207.594 95.2631 205.062 95.2631C202.45 95.2631 200.709 93.2055 200.709 91.0687V33.0595C200.709 30.9227 202.45 28.8651 205.062 28.8651C207.594 28.8651 209.415 30.9227 209.415 33.0595V56.8805H217.883C220.178 56.8805 221.681 58.7007 221.681 60.5209C221.681 62.3411 220.178 64.1613 217.883 64.1613ZM162.327 84.8959H184.644C186.86 84.8959 188.443 86.7161 188.443 88.5363C188.443 90.4356 186.86 92.1767 184.644 92.1767H157.974C155.442 92.1767 153.621 90.1191 153.621 87.9823C153.621 70.0176 153.7 52.053 153.7 34.0091C153.7 31.8724 155.442 29.8147 158.053 29.8147C160.586 29.8147 162.406 31.8724 162.406 34.0091C162.406 51.0241 162.327 67.96 162.327 84.8959Z" fill="#EFC352"/>
<path d="M209.415 64.1613V62.2311H207.484V64.1613H209.415ZM209.415 56.8805H207.484V58.8107H209.415V56.8805ZM162.327 84.8959H160.396V86.8261H162.327V84.8959ZM217.883 62.2311H209.415V66.0915H217.883V62.2311ZM207.484 64.1613V91.0687H211.345V64.1613H207.484ZM207.484 91.0687C207.484 92.1627 206.505 93.3329 205.062 93.3329V97.1934C208.684 97.1934 211.345 94.2483 211.345 91.0687H207.484ZM205.062 93.3329C203.563 93.3329 202.64 92.1864 202.64 91.0687H198.779C198.779 94.2246 201.338 97.1934 205.062 97.1934V93.3329ZM202.64 91.0687V33.0595H198.779V91.0687H202.64ZM202.64 33.0595C202.64 31.9418 203.563 30.7953 205.062 30.7953V26.9348C201.338 26.9348 198.779 29.9036 198.779 33.0595H202.64ZM205.062 30.7953C206.505 30.7953 207.484 31.9655 207.484 33.0595H211.345C211.345 29.8799 208.684 26.9348 205.062 26.9348V30.7953ZM207.484 33.0595V56.8805H211.345V33.0595H207.484ZM209.415 58.8107H217.883V54.9502H209.415V58.8107ZM217.883 58.8107C219.058 58.8107 219.751 59.7128 219.751 60.5209H223.612C223.612 57.6886 221.297 54.9502 217.883 54.9502V58.8107ZM219.751 60.5209C219.751 61.329 219.058 62.2311 217.883 62.2311V66.0915C221.297 66.0915 223.612 63.3532 223.612 60.5209H219.751ZM162.327 86.8261H184.644V82.9656H162.327V86.8261ZM184.644 86.8261C185.767 86.8261 186.512 87.7554 186.512 88.5363H190.373C190.373 85.6767 187.952 82.9656 184.644 82.9656V86.8261ZM186.512 88.5363C186.512 89.3696 185.794 90.2465 184.644 90.2465V94.1069C187.926 94.1069 190.373 91.5017 190.373 88.5363H186.512ZM184.644 90.2465H157.974V94.1069H184.644V90.2465ZM157.974 90.2465C156.531 90.2465 155.552 89.0763 155.552 87.9823H151.691C151.691 91.1619 154.352 94.1069 157.974 94.1069V90.2465ZM155.552 87.9823C155.552 79.0024 155.571 70.0222 155.591 61.0296C155.611 52.0378 155.631 43.0335 155.631 34.0091H151.77C151.77 43.0286 151.75 52.0286 151.731 61.0212C151.711 70.013 151.691 78.9975 151.691 87.9823H155.552ZM155.631 34.0091C155.631 32.8915 156.554 31.745 158.053 31.745V27.8845C154.329 27.8845 151.77 30.8533 151.77 34.0091H155.631ZM158.053 31.745C159.496 31.745 160.476 32.9152 160.476 34.0091H164.336C164.336 30.8296 161.675 27.8845 158.053 27.8845V31.745ZM160.476 34.0091C160.476 42.514 160.456 50.9995 160.436 59.4777C160.416 67.9551 160.396 76.4253 160.396 84.8959H164.257C164.257 76.4306 164.277 67.9649 164.296 59.4867C164.316 51.0092 164.336 42.5193 164.336 34.0091H160.476Z" fill="#C5820D" mask="url(#path-7-outside-3_37_497)"/>
</svg>
