<svg width="24" height="24" viewBox="0 0 24 24" fill="none" xmlns="http://www.w3.org/2000/svg">
<path d="M15.6221 21.6042L6.30415 12.7388C6.19355 12.6332 6.11539 12.5189 6.06968 12.3958C6.02323 12.2726 6 12.1407 6 12C6 11.8593 6.02323 11.7274 6.06968 11.6042C6.11539 11.4811 6.19355 11.3668 6.30415 11.2612L15.6221 2.36939C15.8802 2.12313 16.2028 2 16.5899 2C16.977 2 17.3088 2.13193 17.5853 2.39578C17.8618 2.65963 18 2.96746 18 3.31926C18 3.67106 17.8618 3.97889 17.5853 4.24274L9.45622 12L17.5853 19.7573C17.8433 20.0035 17.9724 20.3068 17.9724 20.667C17.9724 21.028 17.8341 21.3404 17.5576 21.6042C17.2811 21.8681 16.9585 22 16.5899 22C16.2212 22 15.8986 21.8681 15.6221 21.6042Z" fill="#EFC352"/>
</svg>
